<svg id="Capa_1" data-name="Capa 1" xmlns="http://www.w3.org/2000/svg" viewBox="0 0 66.57 12.61"><defs><style>.cls-1{fill:#8cc63f;}.cls-2{fill:#333;}</style></defs><title>logo</title><path d="M5.48,7.79v2.3L.39,7V5.08L5.48,2V4.27L2.37,6Z" transform="translate(-0.39 -0.6)"/><path class="cls-1" d="M9.63,10.57h-3V.6H9.54l1.22,2.08L12,.6h2.93v10h-3v-5L10.76,7.51,9.63,5.58Z" transform="translate(-0.39 -0.6)"/><path class="cls-1" d="M21.94,10.57H16.3V.6h3V8.07h2.64Z" transform="translate(-0.39 -0.6)"/><path d="M21.93,13.21V11.75h4.72v1.46Z" transform="translate(-0.39 -0.6)"/><path class="cls-2" d="M30,8.87l-.38,1.7h-3L29,.6h4.28l2.3,10h-3l-.39-1.7Zm.54-2.34h1.11L31.1,4.1Z" transform="translate(-0.39 -0.6)"/><path class="cls-2" d="M37.24,10.57,34.88,2.72h2.73l.63,2,.63-2h2.66L39.2,10.57Z" transform="translate(-0.39 -0.6)"/><path class="cls-2" d="M44.19,10.57V10a1.7,1.7,0,0,1-.62.47,1.52,1.52,0,0,1-.69.17,1.23,1.23,0,0,1-1-.57,2.42,2.42,0,0,1-.41-1.48,2.51,2.51,0,0,1,.51-1.66,1.7,1.7,0,0,1,1.38-.62,2.45,2.45,0,0,1,.86.18c0-.75-.36-1.13-1-1.13A2.5,2.5,0,0,0,41.56,6V3.59a3.9,3.9,0,0,1,2.66-.94,3,3,0,0,1,1.37.29,2,2,0,0,1,.87.85,3.84,3.84,0,0,1,.4,1.15A12.76,12.76,0,0,1,47,6.72v3.85Zm0-1.74V7.74a.85.85,0,0,0-.44-.13.5.5,0,0,0-.41.19.67.67,0,0,0-.16.47.91.91,0,0,0,.16.56.48.48,0,0,0,.41.22A.5.5,0,0,0,44.19,8.83Z" transform="translate(-0.39 -0.6)"/><path class="cls-2" d="M50.71.6v10H48V.6Z" transform="translate(-0.39 -0.6)"/><path class="cls-2" d="M54.5.6v10H51.75V.6Z" transform="translate(-0.39 -0.6)"/><path class="cls-2" d="M61.05,7.15H58.24a1.92,1.92,0,0,0,.5.94,1.14,1.14,0,0,0,.81.34,1.74,1.74,0,0,0,1.5-.86V9a2.89,2.89,0,0,1-2.61,1.73,2.64,2.64,0,0,1-2.25-1.15,5.26,5.26,0,0,1-.83-3.13,5.22,5.22,0,0,1,.41-2.06,3.07,3.07,0,0,1,1-1.38,2.46,2.46,0,0,1,1.43-.43,2.1,2.1,0,0,1,1,.25,2.85,2.85,0,0,1,.89.76,3.73,3.73,0,0,1,.64,1.26A5.84,5.84,0,0,1,61,6C61,6.34,61.05,6.72,61.05,7.15Zm-3-1.38h1.29a2,2,0,0,0-.21-.91c-.12-.23-.27-.34-.44-.34a.54.54,0,0,0-.46.33,1.7,1.7,0,0,0-.18.83Z" transform="translate(-0.39 -0.6)"/><path d="M61.86,4.28V2L67,5.06V7l-5.09,3.11V7.8L65,6Z" transform="translate(-0.39 -0.6)"/></svg>